<?xml version="1.0" encoding="UTF-8"?>
<svg enable-background="new 0 0 184.3 170.1" version="1.1" viewBox="0 0 184.3 170.1" xml:space="preserve" xmlns="http://www.w3.org/2000/svg">
<style type="text/css">
	.st0{fill:#D3AF77;}
</style>
<path class="st0" d="m41.1 67.7c2.1-2.6 3.4-5.8 3.4-9.4 0-8.2-6.7-14.9-14.9-14.9s-14.9 6.7-14.9 14.9c0 6 3.6 11.2 8.8 13.5l4.3 16.2h18.6l-5.3-20.3z"/>
<path d="m124.6 99.1l-5.9-0.6c-0.1 1.5-0.4 3-0.7 4.4h-111.2c-0.6-2.9-0.9-5.9-0.9-8.9v-3h105.1v-5.9h-111v8.9c0 24.8 18 45.5 41.6 49.7v12.7h41.6v-12.7c21.9-3.9 39.1-21.8 41.4-44.6zm-47.3 51.3h-29.8v-6.1c1 0.1 2 0.2 3 0.2h23.8c1 0 2-0.1 3-0.1v6zm-3-11.9h-23.8c-19.4 0-35.8-12.4-42-29.7h107.8c-6.1 17.5-22.7 29.7-42 29.7z"/>
<path d="m148.6 114.7v-83.2h-5.9v83.2h-17.8v14.9l6.6 26.7h28.4l6.5-26 0.1-15.6h-17.9zm11.9 6v5.9h-29.7v-5.9h29.7zm-24.4 29.7l-4.5-17.8h28l-4.5 17.8h-19z"/>
<path class="st0" d="m163.4 43.4h-20.8v-8.9c0-11.5 9.4-20.8 20.8-20.8h20.8v8.9c0.1 11.5-9.3 20.8-20.8 20.8z"/>
<path class="st0" d="m163.4 85h-20.8v-8.9c0-11.5 9.3-20.8 20.8-20.8h20.8v8.9c0.1 11.5-9.3 20.8-20.8 20.8z"/>
<path class="st0" d="m148.6 52.3h-20.8c-11.5 0-20.8-9.3-20.8-20.8v-8.9h20.8c11.5 0 20.8 9.3 20.8 20.8v8.9z"/>
<path class="st0" d="m148.6 102.9h-20.8c-11.5 0-20.8-9.3-20.8-20.8v-8.9h20.8c11.5 0 20.8 9.3 20.8 20.8v8.9z"/>
</svg>
