<?xml version="1.0" encoding="UTF-8"?>
<svg enable-background="new 2249.7 653.8 184.3 212.3" version="1.1" viewBox="2249.7 653.8 184.3 212.3" xml:space="preserve" xmlns="http://www.w3.org/2000/svg">
<style type="text/css">
	.st0{fill:#D4B077;}
	.st1{fill:#333333;}
</style>
		<circle class="st0" cx="2355.4" cy="746.1" r="47.8"/>
		<path class="st1" d="m2426.3 667.7c-24 0-47.4-4.5-69.6-13.4l-1.3-0.5-1.3 0.5c-22.2 8.9-45.7 13.4-69.6 13.4h-7.6v71.7h-17.1c-5.6 0-10.2 4.6-10.2 10.2v58c0 5.6 4.6 10.2 10.2 10.2h30.7c8.1 12.8 19.2 23.4 32.5 30.6l32.3 17.6 32.3-17.6c28.5-15.5 46.2-45.4 46.2-77.8v-102.9h-7.5zm-169.8 139.9v-58c0-1.9 1.5-3.4 3.4-3.4h30.7c1.9 0 3.4 1.5 3.4 3.4v58c0 1.9-1.5 3.4-3.4 3.4h-30.7c-1.9 0-3.4-1.6-3.4-3.4zm44.3-51.3c11.4-0.6 20.5-10.1 20.5-21.6v-17.6c0-4.7 3.8-8.5 8.5-8.5s8.5 3.8 8.5 8.5v21.5c0 6 4.9 10.9 10.9 10.9h25c6.5 0 11.8 5.3 11.8 11.8v37.8c0 6.5-5.3 11.8-11.8 11.8h-50.3c-2.7 0-5.2-1.3-6.7-3.6-2.8-4.2-7.4-6.6-12.4-6.6h-4.1v-44.4h0.1zm126.3 14.3c0 30-16.3 57.5-42.6 71.8l-29 15.8-29-15.8c-11.9-6.5-21.9-15.8-29.3-27.1 2.1-1.7 3.4-4.3 3.6-7.1 6.9 11.9 16.8 21.6 28.9 28.2l25.7 14 25.7-14c24.1-13.2 39.1-38.4 39.1-65.9v-51.8h-6.8v51.8c0 25-13.6 47.9-35.5 59.9l-22.5 12.3-22.5-12.3c-9.6-5.2-17.7-12.7-23.8-21.6 1 0.6 1.8 1.4 2.5 2.3 2.8 4.2 7.4 6.6 12.4 6.6h50.3c10.3 0 18.6-8.4 18.6-18.6v-37.8c0-10.3-8.4-18.6-18.6-18.6h-25c-2.3 0-4.1-1.8-4.1-4.1v-21.5c0-8.5-6.9-15.4-15.4-15.4s-15.4 6.9-15.4 15.4v17.6c0 7.8-6 14.1-13.7 14.7 0-3-1.3-5.6-3.4-7.5v-54.2c19.8-1.2 39.3-5.3 58-12.1 18.7 6.8 38.2 10.8 58 12.1v3.8h6.8v-10.3l-3.3-0.1c-20.7-0.9-41-5.1-60.4-12.3l-1.2-0.4-1.2 0.4c-19.4 7.2-39.7 11.3-60.4 12.2l-3.3 0.2v58.1h-6.8v-64.8h0.8c24.4 0 48.2-4.5 70.9-13.4 22.7 8.9 46.5 13.4 70.9 13.4h0.8l0.2 96.1z"/>
		<rect class="st1" x="2413.4" y="705.2" width="6.8" height="6.8"/>
		<rect class="st1" x="2263.3" y="797.3" width="23.9" height="6.8"/>
</svg>
