<?xml version="1.0" encoding="UTF-8"?>
<svg enable-background="new 0 0 496 496" version="1.1" viewBox="0 0 496 496" xml:space="preserve" xmlns="http://www.w3.org/2000/svg">
<style type="text/css">
	.st0{fill:#D3AF77;}
</style>
<path d="M455.2,276.4l-14.3,7.2l24.7,49.4l-30.5-6.1l-11.4,28.6l-24.3-54.7l-11.3,5l-11.3-5l-24.3,54.7L341,326.9l-30.5,6.1  l24.7-49.4l-14.3-7.2l-39.3,78.6l49.5-9.9l20.6,51.4l36.4-81.9l12,27V480H80V336h112v-39c0-18.4-12.5-34.3-30.3-38.8l-33.7-8.4v-3.9  c14.5-10.1,24-26.9,24-45.9v-16c0-30.9-25.1-56-56-56c-5.6,0-10.9,0.8-16,2.4V16h320v107.1h16V0H64v138.1C49.5,148.2,40,165,40,184  v16c0,19,9.5,35.8,24,45.9v3.9l-33.7,8.4C12.5,262.6,0,278.6,0,297v39h64v160h352V377.7l8.4,18.9l20.6-51.4l49.5,9.9L455.2,276.4z   M80,253.6c5.1,1.5,10.4,2.4,16,2.4s10.9-0.8,16-2.4v2.4c0,8.8-7.2,16-16,16s-16-7.2-16-16V253.6z M56,200v-16c0-22.1,17.9-40,40-40  s40,17.9,40,40v16c0,22.1-17.9,40-40,40S56,222.1,56,200z M16,297c0-11,7.5-20.6,18.2-23.3l31.5-7.9C69.9,278.6,81.8,288,96,288  s26.1-9.4,30.3-22.2l31.5,7.9C168.5,276.4,176,286,176,297v23H16V297z"/>
	<path class="st0" d="M328,424v-32h-64v-32H96v96h288v-32H328z"/>
	<path class="st0" d="M320,104H96V40h160v32h64V104z"/>
	<path class="st0" d="m384 312c-14.6 0-27.7-7.9-34.7-20.3-13.7 3.8-28.5 0.2-38.9-10.2-10.3-10.3-14-25.2-10.2-38.9-12.4-7-20.3-20-20.3-34.7s7.9-27.7 20.3-34.7c-3.8-13.7-0.2-28.5 10.2-38.9 10.3-10.3 25.2-14 38.9-10.2 7-12.4 20-20.3 34.7-20.3s27.7 7.9 34.7 20.3c13.7-3.8 28.5-0.2 38.9 10.2 10.3 10.3 14 25.2 10.2 38.9 12.4 7 20.3 20 20.3 34.7s-7.9 27.7-20.3 34.7c3.8 13.7 0.2 28.5-10.2 38.9-10.3 10.3-25.2 14-38.9 10.2-7 12.4-20.1 20.3-34.7 20.3z"/>
<path d="m384 264c-30.9 0-56-25.1-56-56s25.1-56 56-56 56 25.1 56 56-25.1 56-56 56zm0-96c-22.1 0-40 17.9-40 40s17.9 40 40 40 40-17.9 40-40-17.9-40-40-40z"/>
<path d="M96,32h160v16H96V32z"/>
<path d="M96,64h288v16H96V64z"/>
<path d="M96,96h224v16H96V96z"/>
<path d="M96,352h168v16H96V352z"/>
<path d="M96,384h232v16H96V384z"/>
<path d="M96,416h288v16H96V416z"/>
<path d="M96,448h288v16H96V448z"/>
</svg>
