<?xml version="1.0" encoding="UTF-8"?>
<svg enable-background="new 0 0 496 496" version="1.1" viewBox="0 0 496 496" xml:space="preserve" xmlns="http://www.w3.org/2000/svg">
<style type="text/css">
	.st0{fill:#D3AF77;}
</style>
<path class="st0" d="m232 376c0-35.4 18.8-66.8 48-87.4v-104.6h-48.8c-15.6-34.2-49.3-56-87.2-56s-71.6 21.8-87.2 56h-48.8v200h224.5c-0.3-2.7-0.5-5.3-0.5-8z"/>
<path d="M360,256c-26.5,0-51.1,6.8-72,18.4V163.9c0-20-10.8-38.7-28.2-48.6L232,99.4V64h8c13.2,0,24-10.8,24-24V24  c0-13.2-10.8-24-24-24H48C34.8,0,24,10.8,24,24v16c0,13.2,10.8,24,24,24h8v35.4l-27.8,15.9C10.8,125.2,0,143.8,0,163.9V392  c0,30.9,25.1,56,56,56h176c5.9,0,11.6-0.9,17.1-2.7C273.8,475.9,314.3,496,360,496c75,0,136-53.8,136-120S435,256,360,256z   M476.6,352H243.4c12.6-45.8,60-80,116.6-80S464.1,306.2,476.6,352z M480,376c0,2.7-0.2,5.4-0.5,8H240.5c-0.2-2.6-0.5-5.3-0.5-8  s0.2-5.4,0.5-8h239.1C479.8,370.6,480,373.3,480,376z M240,319.6c-3.2,5.2-5.8,10.7-8.1,16.4H48V232h192V319.6z M48,48  c-4.4,0-8-3.6-8-8V24c0-4.4,3.6-8,8-8h8v16h16V16h16v16h16V16h16v16h16V16h16v16h16V16h16v16h16V16h16v16h16V16h8c4.4,0,8,3.6,8,8  v16c0,4.4-3.6,8-8,8H48z M232,432H56c-22.1,0-40-17.9-40-40V163.9c0-14.3,7.7-27.6,20.2-34.7L72,108.6V64h144v44.6l35.8,20.5  c12.4,7.1,20.2,20.4,20.2,34.7v120.8c-5.8,4.3-11.1,9.1-16,14.2V216H32v136h194.7c-1.8,7.8-2.7,15.8-2.7,24  c0,19.9,5.6,38.7,15.4,55.2C237,431.7,234.5,432,232,432z M360,480c-56.6,0-104.1-34.2-116.6-80h233.3  C464.1,445.8,416.6,480,360,480z"/>
</svg>