<?xml version="1.0" encoding="UTF-8"?>
<svg enable-background="new 0 0 420.5 115.8" version="1.1" viewBox="0 0 420.5 115.8" xml:space="preserve" xmlns="http://www.w3.org/2000/svg">
<style type="text/css">
	.st0{fill:#FFFFFF;}
	.st1{fill:#00467F;}
	.st2{fill:#8DC63F;}
</style>
<path class="st0" d="M57.9,115.8c32,0,57.9-25.9,57.9-57.9S89.8,0,57.9,0C25.9,0,0,25.9,0,57.9S25.9,115.8,57.9,115.8"/>
<path class="st1" d="m151.8 62.1h-5.2v15.4c1.5 0.3 4.4 0.5 6.4 0.5 5.5 0 9.4-2.7 9.4-8.2 0-5.7-4.2-7.7-10.6-7.7m0.8-20.4c-1.9 0-4.7 0.3-6 0.6v14.1h5.5c5.6 0 8.8-2.9 8.8-7.4-0.1-5-3.8-7.3-8.3-7.3m0.5 42.3c-4.7 0-10-0.5-13.1-1.5v-45.5c3.1-0.7 9.5-1.3 12.8-1.3 8.2 0 15 3.6 15 12.4 0 4.8-2.7 8.5-6.9 10.1v0.3c5.2 1.3 8.6 5.3 8.6 11.3-0.1 8.8-6.5 14.2-16.4 14.2"/>
<path class="st1" d="m176.1 46.6h6.4v36.6h-6.4v-36.6zm3.3-6.7c-2.3 0-4-1.7-4-4.1 0-2.3 1.7-4 4.1-4 2.2 0 3.9 1.7 3.9 4-0.1 2.4-1.8 4.1-4 4.1"/>
<path class="st1" d="m206.1 51.9c-6 0-10.4 4.6-10.4 12.9 0 7.9 3.9 13 10.3 13s10.6-5 10.6-13c0-7.9-4-12.9-10.5-12.9m0 32.1c-11 0-17.3-8-17.3-19.2 0-10.7 7.1-19.1 17.4-19.1 10.7 0 17.3 7.6 17.3 19.1 0 11-7.4 19.2-17.4 19.2"/>
<path class="st1" d="M252.4,83.2V60.9c0-6.4-2.9-8.8-7.7-8.8c-3.4,0-6.4,1.7-8.2,4.3v26.8H230V57c0-3.1-0.5-7.3-1.3-9.6l6.1-1.5  c0.4,1,1,3.5,1,4.5c3.1-3.4,6.9-4.7,10.4-4.7c6.1,0,12.7,2.7,12.7,14.2v23.3H252.4z"/>
<path class="st1" d="m282.3 51.9c-6 0-10.4 4.6-10.4 12.9 0 7.9 3.9 13 10.3 13s10.6-5 10.6-13c0-7.9-4-12.9-10.5-12.9m0 32.1c-11 0-17.3-8-17.3-19.2 0-10.7 7.1-19.1 17.4-19.1 10.7 0 17.3 7.6 17.3 19.1 0 11-7.4 19.2-17.4 19.2"/>
<path class="st1" d="m323.5 53c-0.8-0.1-1.8-0.3-2.9-0.3-3.4 0-5.9 1.5-8 5v25.6h-6.4v-24.9c0-4-0.5-8.2-1.4-11l6.1-1.4c0.6 1.3 1.1 3.6 1.1 5.5 2.2-4.1 5.7-5.7 9.6-5.7 0.6 0 1.8 0.1 2.5 0.4l-0.6 6.8z"/>
<path class="st1" d="m328.7 46.6h6.4v36.6h-6.4v-36.6zm3.2-6.7c-2.3 0-4-1.7-4-4.1 0-2.3 1.7-4 4.1-4 2.2 0 3.9 1.7 3.9 4 0 2.4-1.7 4.1-4 4.1"/>
<path class="st1" d="m367.1 56.3c-1.8-2.7-4.8-4.2-8.2-4.2-6.5 0-10.6 5-10.6 13.1 0 7.5 4.4 12.3 10.9 12.3 3.9 0 8.3-1.7 10.6-3.6l0.6 6.8c-2.8 2-7.5 3.3-12 3.3-10.4 0-17.1-7.2-17.1-18.5 0-12.2 7.3-19.8 17.4-19.8 5.2 0 9.3 1.5 12.2 5.2l-3.8 5.4z"/>
<path class="st1" d="m381.4 68.7c-0.7 1.3-1 2.7-1 3.7 0 3.7 1.7 6.2 5.9 6.2 5.9 0 8.3-4.7 8.7-11.3-4.2 0.1-9.9 0.6-13.6 1.4m15.6 14.9l-1.1-5.2h-0.3c-2.5 3.4-5.7 5.6-10.4 5.6-6.9 0-11-4.1-11-11 0-8 5.4-10.5 21-10.5 0.1-1.4 0.2-2.8 0.2-3.9 0-4.5-2.7-6.8-7.3-6.8-3.4 0-7.1 0.9-9.7 2.3l-0.8-6.1c2.8-1.3 7.2-2.3 11.6-2.3 7.1 0 12.5 3.7 12.5 12 0 4.3-0.9 11.6-0.9 14l2.7 11.2-6.5 0.7z"/>
<path class="st1" d="m113.3 57.9c0 30.6-24.8 55.4-55.4 55.4s-55.4-24.8-55.4-55.4 24.8-55.4 55.4-55.4 55.4 24.8 55.4 55.4"/>
<path class="st2" d="m83.3 57.9c0 14.2-11.3 25.6-25.5 25.6-5.1 0-15.1-2-13.9-9.2 0.1-0.5 0.4-1.9 1.2-3.2 1-1.5 3.3-3.6 8.3-5.2 7.4-2.5 13.3 0.4 13.3 0.4s-4.7-4-13.3-1.6c-1.7 0.5-3.1 1-4.5 1.7-1.1 0.5-1.3-0.2-1.1-0.6 1-1.7 2-3.4 3.2-4.8 1.5-1.8 5.2-5.7 11-8 4.2-1.6 8.4-2.1 8.4-2.1s-4.2-0.3-8.3 1.1c-1.7 0.6-3 1.1-4.2 1.7-1 0.5-0.7-0.2-0.3-0.6 0.3-0.3 0.6-0.6 0.8-0.9 8-8.2 15.3-12.1 15.3-12.1-6.6 1.5-12 4.3-17.4 9.2-0.2 0.2-0.7 0.6-0.7-0.1s0-1.4-0.1-2.5c-0.1-2.7-1.5-4.3-1.5-4.3s1.2 2.1 0.9 5.1-1.3 4.6-1.7 4.9c-1.6 1.7-2.8 3.1-4.5 5.2-0.1 0.2-0.6 0.3-0.6-0.4 0-1.1-0.1-2.9-0.2-4-0.4-6.3-2.9-8.4-2.9-8.4s1.9 3 1.9 8.4c0 2.3-0.3 4.6-0.6 6.2-0.2 1.2-1.6 3.4-1.7 3.5-4.3 5.8-7.3 11.3-8.7 13.7-2.2 4-3.6 6.7-5 9.3-0.8 1.6-2.3-0.8-1-3.4 2-4.3 6-10.2 4-15.2-1.2-3.1-1.7-5.8-1.7-9.3 0-14.2 11.5-25.6 25.3-25.6h25.8v25.5z"/>
<path class="st1" d="m415.1 37.1c0 0.7-0.5 1-1.2 1h-0.8v-2h0.8c0.8 0 1.2 0.3 1.2 1m1.8 4.2c-0.3-0.8-0.8-1.5-1.6-2.6 0.7-0.3 1.1-0.9 1.1-1.6 0-1.3-0.9-2-2.4-2-0.4 0-1.4 0.1-2 0.2v6.3h1.2v-2.4h1c0.7 1 1.1 1.8 1.3 2.4l1.4-0.3zm2.5-2.9c0 3.3-2.1 5.6-5.2 5.6s-5.2-2.4-5.2-5.6 2.2-5.6 5.2-5.6c2.9 0 5.2 2.3 5.2 5.6m1.1 0c0-3.8-2.9-6.6-6.4-6.6s-6.4 2.9-6.4 6.6c0 3.8 2.7 6.6 6.4 6.6 3.7-0.1 6.4-2.8 6.4-6.6"/>
</svg>