<?xml version="1.0" encoding="UTF-8" standalone="no"?>
<svg
   xmlns:dc="http://purl.org/dc/elements/1.1/"
   xmlns:cc="http://creativecommons.org/ns#"
   xmlns:rdf="http://www.w3.org/1999/02/22-rdf-syntax-ns#"
   xmlns:svg="http://www.w3.org/2000/svg"
   xmlns="http://www.w3.org/2000/svg"
   version="1.1"
   id="Capa_1"
   x="0px"
   y="0px"
   viewBox="708.7 838.8 1314.0131 1000"
   xml:space="preserve"
   width="1314.0132"
   height="1000"><metadata
     id="metadata15"><rdf:RDF><cc:Work
         rdf:about=""><dc:format>image/svg+xml</dc:format><dc:type
           rdf:resource="http://purl.org/dc/dcmitype/StillImage" /><dc:title></dc:title></cc:Work></rdf:RDF></metadata><defs
     id="defs13" /><g
     id="g3"
     transform="matrix(0.18542211,0,0,0.18542211,577.30991,681.78455)"><g
       id="g5"><path
         d="m 6930.2,846.8 -5355,0 c -478,0 -866.6,388.6 -866.6,866.6 l 0,3659.9 c 0,478 388.6,866.6 866.6,866.6 l 5353.4,0 c 478,0 866.6,-388.6 866.6,-866.6 l 0,-3658.5 c 1.5,-478 -387,-868 -865,-868 z m 470.6,4526.4 c 0,259.5 -211.1,470.7 -470.7,470.7 l -5354.9,0 c -259.5,0 -470.7,-211.1 -470.7,-470.7 l 0,-3658.4 c 0,-259.5 211.1,-470.7 470.7,-470.7 l 5353.4,0 c 259.5,0 470.7,211.1 470.7,470.7 l 0,3658.4 1.5,0 z"
         id="path7" /><path
         d="M 5177.9,3497.8 6911.1,1943.5 c 80.6,-73.3 88,-198 14.7,-280.1 -73.3,-80.6 -197.9,-88 -280.1,-14.7 L 4255.6,3794 3789.3,3377.6 c -1.5,-1.5 -2.9,-2.9 -2.9,-4.4 -10.3,-10.3 -20.5,-19.1 -32.3,-27.9 l -1897.4,-1698 c -82.1,-73.3 -206.7,-66 -280.1,16.1 -73.3,82.1 -66,206.7 16.1,280.1 L 3346.5,3511 1600.2,5146 c -79.2,74.8 -83.6,199.4 -8.8,280.1 39.6,41.1 92.4,63.1 145.2,63.1 48.4,0 96.8,-17.6 134.9,-52.8 L 3644.3,3778 l 480.9,429.6 c 38.1,33.7 85,49.9 132,49.9 46.9,0 95.3,-17.6 132,-51.3 l 494.1,-442.8 1762.5,1674.5 c 38.1,36.7 88,54.3 136.4,54.3 52.8,0 104.1,-20.5 143.7,-61.6 74.8,-79.2 71.8,-205.3 -7.3,-280.1 L 5177.9,3497.8 Z"
         id="path9" /></g></g></svg>