<?xml version="1.0" encoding="utf-8"?>
<!-- Generator: Adobe Illustrator 21.0.0, SVG Export Plug-In . SVG Version: 6.00 Build 0)  -->
<svg version="1.1" id="Layer_1" xmlns="http://www.w3.org/2000/svg" xmlns:xlink="http://www.w3.org/1999/xlink" x="0px" y="0px"
	 viewBox="0 0 60 60" style="enable-background:new 0 0 60 60;" xml:space="preserve">
<style type="text/css">
	.st0{fill:#231F20;}
</style>
<path class="st0" d="M30,0C13.4,0,0,13.4,0,30s13.4,30,30,30s30-13.4,30-30S46.6,0,30,0z M39.6,33c-0.6,0.5-1.4,0.5-2,0L30,25.4
	L22.4,33c-0.5,0.5-1.4,0.5-2,0c-0.5-0.5-0.5-1.4,0-2l8.6-8.6c0.3-0.3,0.6-0.4,1-0.4s0.7,0.1,1,0.4l8.6,8.6
	C40.1,31.6,40.1,32.5,39.6,33z"/>
</svg>
