<?xml version="1.0" encoding="UTF-8" standalone="no"?>
<svg
   xmlns:dc="http://purl.org/dc/elements/1.1/"
   xmlns:cc="http://creativecommons.org/ns#"
   xmlns:rdf="http://www.w3.org/1999/02/22-rdf-syntax-ns#"
   xmlns:svg="http://www.w3.org/2000/svg"
   xmlns="http://www.w3.org/2000/svg"
   version="1.1"
   id="Layer_1"
   x="0px"
   y="0px"
   viewBox="6442.6 6074.3 1000 1000"
   xml:space="preserve"
   width="1000"
   height="1000"><metadata
     id="metadata13"><rdf:RDF><cc:Work
         rdf:about=""><dc:format>image/svg+xml</dc:format><dc:type
           rdf:resource="http://purl.org/dc/dcmitype/StillImage" /><dc:title></dc:title></cc:Work></rdf:RDF></metadata><defs
     id="defs11" /><style
     type="text/css"
     id="style3">
	.st0{fill:#8DC73F;}
	.st1{fill:#FFFFFF;}
</style><path
     d="m 6942.6001,6074.2998 a 499.9998,499.9998 0 0 0 -500,500 499.9998,499.9998 0 0 0 500,500 499.9998,499.9998 0 0 0 500,-500 499.9998,499.9998 0 0 0 -48.0333,-212.5833 l -443.3734,438.2866 c -7.0133,7.0134 -16.3966,9.3834 -25.78,8.59 -9.3833,0.8 -18.7666,-1.5666 -25.78,-8.59 l -260.9633,-258.5966 c -11.7533,-11.7534 -11.7533,-31.21 0,-42.9667 l 78.1333,-77.34 c 12.5434,-11.7567 32,-11.7567 43.7534,0 l 163.2766,160.9033 360.22,-372.1 a 499.9998,499.9998 0 0 0 -341.4533,-135.6033 z"
     id="circle5" /></svg>