<?xml version="1.0" encoding="utf-8"?>
<!-- Generator: Adobe Illustrator 21.0.0, SVG Export Plug-In . SVG Version: 6.00 Build 0)  -->
<svg version="1.1"
	 id="svg2" xmlns:cc="http://creativecommons.org/ns#" xmlns:dc="http://purl.org/dc/elements/1.1/" xmlns:rdf="http://www.w3.org/1999/02/22-rdf-syntax-ns#" xmlns:svg="http://www.w3.org/2000/svg"
	 xmlns="http://www.w3.org/2000/svg" xmlns:xlink="http://www.w3.org/1999/xlink" x="0px" y="0px" viewBox="0 0 800 800"
	 style="enable-background:new 0 0 800 800;" xml:space="preserve">
<g id="layer1" transform="translate(-220.07423,373.35205)">
	<path id="path4140" d="M620.1-373.4c220.9,0,400,179.1,400,400c0,0,0,0,0,0c0,220.9-179.1,400-400,400h0
		c-220.9,0-400-179.1-400-400c0,0,0,0,0,0C220.1-194.3,399.2-373.4,620.1-373.4C620.1-373.4,620.1-373.4,620.1-373.4z M547.9-133.4
		V-67l123.6,93.6l-123.6,93.6v66.4L731.3,41.3V11.6L547.9-133.4z"/>
</g>
</svg>
